<svg width="195" height="37" viewBox="0 0 195 37" fill="none" xmlns="http://www.w3.org/2000/svg">
<path fill-rule="evenodd" clip-rule="evenodd" d="M56.07 2.21001V36.09H57.57V2.21001H56.07Z" fill="black"/>
<path d="M169.09 11C169.22 11.358 169.47 11.659 169.8 11.85C170.224 12.076 170.7 12.183 171.18 12.16C171.633 12.1678 172.084 12.0933 172.51 11.94C172.943 11.7704 173.356 11.5524 173.74 11.29C174.086 11.0721 174.402 10.8099 174.68 10.51C175.012 10.0716 175.263 9.57708 175.42 9.05001C175.629 8.43487 175.737 7.7898 175.74 7.14001C175.744 6.82588 175.704 6.51272 175.62 6.21001C175.544 5.94134 175.411 5.69228 175.23 5.48001C175.012 5.25278 174.74 5.08424 174.44 4.99001C174.071 4.85935 173.682 4.79503 173.29 4.80001C172.802 4.79828 172.318 4.897 171.87 5.09001C171.43 5.27846 171.016 5.52389 170.64 5.82001C170.357 6.02952 170.095 6.26742 169.86 6.53001C169.557 6.95627 169.333 7.43399 169.2 7.94001C169.005 8.55127 168.904 9.18848 168.9 9.83001C168.897 10.232 168.965 10.6314 169.1 11.01L169.09 11ZM170.95 7.53001C171.066 6.92722 171.319 6.35923 171.69 5.87001C171.816 5.73054 171.971 5.61928 172.143 5.54347C172.315 5.46765 172.502 5.42899 172.69 5.43001C172.865 5.4235 173.039 5.45602 173.2 5.52521C173.361 5.59439 173.504 5.69851 173.62 5.83001C173.89 6.20301 174.019 6.66001 173.98 7.12001C173.973 7.86699 173.869 8.60989 173.67 9.33001C173.564 9.76075 173.406 10.1771 173.2 10.57C173.067 10.8278 172.875 11.0505 172.64 11.22C172.425 11.3568 172.175 11.4264 171.92 11.42C171.735 11.4355 171.548 11.4085 171.375 11.3409C171.201 11.2733 171.046 11.167 170.92 11.03C170.662 10.6516 170.542 10.1962 170.58 9.74001C170.593 8.98552 170.704 8.23591 170.91 7.51001L170.95 7.53001ZM177.68 5.81001H178.68L177.62 11.28C177.464 12.2938 177.24 13.2961 176.95 14.28C176.894 14.469 176.787 14.6387 176.64 14.77C176.529 14.8586 176.392 14.9079 176.25 14.91C176.103 14.9108 175.96 14.8574 175.85 14.76C175.705 14.6193 175.592 14.4487 175.52 14.26H175.29C175.24 14.52 175.18 14.77 175.11 14.99C175.04 15.21 174.94 15.5 174.81 15.87C174.961 15.94 175.124 15.984 175.29 16C175.543 15.994 175.79 15.925 176.01 15.8C176.546 15.4973 177.021 15.0971 177.41 14.62C177.882 14.0708 178.258 13.4452 178.52 12.77C178.92 11.65 179.254 10.509 179.52 9.35001L180.29 5.81001H182.16C182.215 5.55064 182.292 5.2964 182.39 5.05001L182.32 4.93001C182.085 4.96657 181.848 4.98994 181.61 5.00001C181.083 5.03301 180.75 5.03301 180.61 5.00001H180.49C180.601 4.34332 180.745 3.69253 180.92 3.05001C180.967 2.86332 181.034 2.68227 181.12 2.51001C181.184 2.39455 181.277 2.29797 181.39 2.23001C181.495 2.16501 181.616 2.1304 181.74 2.13001C181.931 2.14127 182.115 2.20722 182.27 2.32001C182.51 2.49601 182.714 2.71601 182.87 2.97001H183.09C183.182 2.33771 183.319 1.71279 183.5 1.10001C183.309 1.02362 183.106 0.982942 182.9 0.980008C182.665 0.971254 182.431 1.00862 182.21 1.09001C181.859 1.2863 181.525 1.51035 181.21 1.76001C180.713 2.11669 180.239 2.50411 179.79 2.92001C179.549 3.13657 179.343 3.38965 179.18 3.67001C179.06 3.94558 178.973 4.2342 178.92 4.53001C178.92 4.72001 178.85 4.84001 178.82 4.92001C178.564 5.03274 178.3 5.12633 178.03 5.20001C177.71 5.29301 177.47 5.37001 177.31 5.43001L177.24 5.80001H177.68V5.81001ZM76.07 22.3H74.74C74.7522 22.8715 74.6951 23.4423 74.57 24C74.5552 24.0781 74.5208 24.1512 74.4701 24.2124C74.4194 24.2736 74.354 24.321 74.28 24.35C73.4676 24.514 72.6376 24.5745 71.81 24.53C71.357 24.53 70.487 24.493 69.2 24.42V22.34C69.2 19.72 69.257 17.91 69.37 16.91L70.96 16.84H72.39C73.1668 16.8305 73.9429 16.8874 74.71 17.01C75.1464 17.0568 75.5721 17.175 75.97 17.36C76.0334 17.3913 76.0832 17.4446 76.11 17.51C76.173 17.772 76.204 18.04 76.2 18.31C76.26 19.123 76.29 19.65 76.29 19.89H77.52C77.52 19.223 77.567 18.447 77.66 17.56C77.753 16.673 77.85 15.94 77.95 15.36L77.81 15.15C76.8469 15.0464 75.8787 14.9963 74.91 15L67.63 15.14L62.29 15V16.3C62.89 16.323 63.487 16.38 64.08 16.47C64.233 16.494 64.379 16.548 64.51 16.63C64.5805 16.6975 64.6293 16.7846 64.65 16.88C64.7666 17.4222 64.8236 17.9755 64.82 18.53C64.913 21.197 64.96 22.61 64.96 22.77V29C64.96 29.533 64.933 30.413 64.88 31.64C64.827 32.867 64.787 33.597 64.76 33.83C64.7491 34.1056 64.6774 34.3754 64.55 34.62C64.4929 34.6992 64.4125 34.7586 64.32 34.79C63.652 34.9276 62.972 34.9979 62.29 35V36.25C64.15 36.177 65.51 36.14 66.37 36.14L72.29 36.22V35C71.4919 34.9713 70.6967 34.8878 69.91 34.75C69.758 34.708 69.6243 34.6165 69.53 34.49C69.3647 33.949 69.2838 33.3857 69.29 32.82C69.23 31.86 69.2 30.193 69.2 27.82V26.11H70.41C71.59 26.084 72.77 26.15 73.94 26.31C74.0452 26.3182 74.1476 26.3482 74.2405 26.3982C74.3335 26.4481 74.4151 26.5168 74.48 26.6C74.6884 27.3412 74.7761 28.111 74.74 28.88H76.07V22.3ZM84.49 36.08C85.157 36.08 86.317 36.1 87.97 36.14L91.53 36.22C92.823 36.22 93.777 36.193 94.39 36.14C94.6936 36.12 94.9947 36.0732 95.29 36C95.29 35.807 95.337 35.233 95.43 34.28L95.81 31.22V30.72H94.58C94.387 31.693 94.19 32.567 93.99 33.34C93.9464 33.5438 93.8576 33.7352 93.73 33.9C93.4997 34.0168 93.2478 34.0849 92.99 34.1C91.6654 34.2911 90.3283 34.3814 88.99 34.37C88.483 34.37 87.533 34.333 86.14 34.26V31.68V27.39V23.02C86.14 21.327 86.163 19.923 86.21 18.81C86.1885 18.1822 86.2153 17.5537 86.29 16.93C86.3297 16.8035 86.4153 16.6965 86.53 16.63C87.2087 16.4334 87.9136 16.3423 88.62 16.36V15C86.973 15.073 85.233 15.11 83.4 15.11C81.753 15.11 80.29 15.073 79.01 15V16.33C79.7949 16.295 80.5799 16.3965 81.33 16.63C81.439 16.6865 81.5215 16.7834 81.56 16.9C81.71 17.98 81.774 19.07 81.75 20.16V26.07C81.75 28.243 81.73 30.103 81.69 31.65C81.65 33.197 81.603 34.097 81.55 34.35C81.5418 34.4118 81.5177 34.4704 81.48 34.52C81.3622 34.6435 81.2234 34.7451 81.07 34.82C80.7161 35.0397 80.3487 35.2367 79.97 35.41V36.19C81.97 36.097 83.473 36.05 84.48 36.05L84.49 36.08ZM97.55 31.88C98.4393 33.4484 99.7763 34.7158 101.39 35.52C103.215 36.3887 105.22 36.8136 107.24 36.76C109.154 36.7986 111.057 36.4588 112.84 35.76C114.035 35.2522 115.119 34.5149 116.03 33.59C116.952 32.6694 117.677 31.5703 118.16 30.36C118.831 28.6811 119.171 26.8881 119.16 25.08C119.16 24.0423 119.036 23.0082 118.79 22C118.578 21.104 118.242 20.2422 117.79 19.44C116.666 17.5863 114.94 16.1743 112.9 15.44C111.288 14.9073 109.598 14.6471 107.9 14.67C106.164 14.6525 104.437 14.9229 102.79 15.47C101.492 15.935 100.305 16.6676 99.3078 17.6202C98.3104 18.5728 97.5242 19.7242 97 21C96.4104 22.5406 96.1252 24.1808 96.16 25.83C96.085 27.9177 96.5646 29.988 97.55 31.83V31.88ZM101.55 20.49C101.941 19.2437 102.736 18.1634 103.81 17.42C104.935 16.717 106.245 16.3686 107.57 16.42C108.645 16.3718 109.714 16.5954 110.68 17.07C111.482 17.54 112.165 18.1864 112.68 18.96C113.293 19.8744 113.74 20.89 114 21.96C114.319 23.2283 114.474 24.5323 114.46 25.84C114.507 27.631 114.219 29.415 113.61 31.1C113.189 32.3393 112.374 33.4068 111.29 34.14C110.26 34.7535 109.079 35.0685 107.88 35.05C106.619 35.0669 105.379 34.7197 104.31 34.05C103.167 33.2405 102.301 32.0988 101.83 30.78C101.116 28.9146 100.776 26.9268 100.83 24.93C100.811 23.4048 101.048 21.8871 101.53 20.44L101.55 20.49ZM121.29 16.6C121.388 16.6622 121.465 16.7529 121.51 16.86C121.659 17.607 121.719 18.3689 121.69 19.13L121.77 22.33V27.95L121.65 32.37C121.638 32.9693 121.588 33.5671 121.5 34.16C121.488 34.3079 121.444 34.4514 121.37 34.58C121.303 34.6577 121.211 34.7105 121.11 34.73C120.45 34.8454 119.78 34.9023 119.11 34.9V36.23C120.443 36.157 121.9 36.12 123.48 36.12C125.247 36.12 126.99 36.157 128.71 36.23V34.89C128.122 34.8943 127.534 34.8642 126.95 34.8C126.794 34.7766 126.645 34.7222 126.51 34.64C126.426 34.584 126.358 34.5085 126.31 34.42C126.196 34.0644 126.139 33.6933 126.14 33.32C126.14 33.04 126.11 31.86 126.05 29.78V24.97C126.05 24.01 126.08 22.103 126.14 19.25C126.14 17.977 126.17 17.157 126.23 16.79C126.706 16.7094 127.187 16.6693 127.67 16.67C128.434 16.6335 129.199 16.711 129.94 16.9C130.608 17.1526 131.184 17.6026 131.59 18.19C132.056 18.872 132.29 19.685 132.26 20.51C132.271 21.382 132.05 22.2412 131.62 23C131.273 23.6634 130.728 24.2019 130.06 24.54C129.186 24.8667 128.25 24.9931 127.32 24.91L127.15 25.41C127.512 25.694 127.829 26.031 128.09 26.41C128.757 27.29 129.543 28.497 130.45 30.03L133.69 35.37C133.847 35.64 133.968 35.929 134.05 36.23C134.85 36.19 135.653 36.17 136.46 36.17C137.127 36.17 138.25 36.19 139.83 36.23V34.89C139.492 34.9066 139.154 34.8661 138.83 34.77C138.641 34.6806 138.471 34.5549 138.33 34.4C138.157 34.22 137.693 33.63 136.94 32.63L135.94 31.13L133.59 27.63L133.42 27.34C133.36 27.24 133.18 26.96 132.85 26.48C132.52 26 132.24 25.55 131.99 25.1C133.359 24.6561 134.574 23.8304 135.49 22.72C136.232 21.7688 136.633 20.5963 136.63 19.39C136.659 18.4478 136.366 17.5237 135.8 16.77C135.304 16.0929 134.603 15.5946 133.8 15.35C132.633 15.0825 131.436 14.9682 130.24 15.01C129.42 15.01 128.387 15.04 127.14 15.1C126.38 15.147 125.473 15.17 124.42 15.17H121.54L119.12 15.1V16.3C119.87 16.3022 120.616 16.4031 121.34 16.6H121.29ZM145.44 15.14C143.793 15.14 142.333 15.103 141.06 15.03V16.36C141.702 16.3648 142.343 16.4082 142.98 16.49C143.113 16.5132 143.238 16.5719 143.34 16.66C143.415 16.7454 143.467 16.8488 143.49 16.96C143.6 17.759 143.66 18.564 143.67 19.37V29.58C143.67 30.613 143.63 31.733 143.55 32.94C143.5 33.77 143.46 34.24 143.43 34.36C143.407 34.4518 143.359 34.5352 143.29 34.6C143.164 34.6932 143.016 34.7518 142.86 34.77C142.7 34.77 142.093 34.807 141.04 34.88V36.21C142.489 36.1321 143.939 36.0954 145.39 36.1C147.263 36.1 149.02 36.137 150.66 36.21V34.89C150.055 34.8947 149.451 34.8613 148.85 34.79C148.685 34.764 148.528 34.7026 148.39 34.61C148.286 34.526 148.212 34.4101 148.18 34.28C148.049 33.6219 147.999 32.9503 148.03 32.28V23.38C148.03 23.187 148.05 21.853 148.09 19.38V17.89C148.092 17.5512 148.143 17.2145 148.24 16.89C148.27 16.7911 148.329 16.7038 148.41 16.64C148.533 16.555 148.673 16.4971 148.82 16.47C149.427 16.3956 150.038 16.3589 150.65 16.36V15C149.003 15.073 147.257 15.11 145.41 15.11L145.44 15.14ZM157.15 36.14L161.64 36.25C163.404 36.288 165.163 36.0622 166.86 35.58C168.324 35.1143 169.683 34.3669 170.86 33.38C172.104 32.3486 173.098 31.0496 173.77 29.58C174.498 27.9588 174.86 26.197 174.83 24.42C174.846 22.9954 174.606 21.5794 174.12 20.24C173.828 19.4669 173.405 18.7498 172.87 18.12C172.301 17.4471 171.626 16.8727 170.87 16.42C169.997 15.9289 169.047 15.5906 168.06 15.42C166.644 15.1736 165.207 15.0631 163.77 15.09C162.99 15.09 161.957 15.107 160.67 15.14C158.883 15.2 157.667 15.23 157.02 15.23L151.57 15V16.22C152.663 16.36 153.297 16.45 153.47 16.49C153.611 16.5136 153.742 16.5759 153.85 16.67C153.906 16.7298 153.947 16.8017 153.97 16.88C154.115 17.783 154.182 18.696 154.17 19.61C154.223 22.183 154.25 24.137 154.25 25.47V28C154.25 31.04 154.193 33.237 154.08 34.59C153.76 34.833 153.426 35.056 153.08 35.26L152.66 35.5V36.23L157.24 36.12L157.15 36.14ZM158.46 28.43V24.93C158.46 20.97 158.513 18.277 158.62 16.85C159.471 16.7226 160.33 16.6557 161.19 16.65C162.752 16.5828 164.315 16.7651 165.82 17.19C166.809 17.5328 167.685 18.1418 168.35 18.95C169.026 19.7761 169.517 20.7378 169.79 21.77C170.084 22.8588 170.232 23.9821 170.23 25.11C170.239 26.3009 170.091 27.4877 169.79 28.64C169.539 29.6415 169.123 30.5945 168.56 31.46C168.12 32.1523 167.557 32.7589 166.9 33.25C166.291 33.6683 165.614 33.9795 164.9 34.17C163.734 34.467 162.533 34.6082 161.33 34.59C160.428 34.5845 159.529 34.5042 158.64 34.35C158.533 33.39 158.48 31.41 158.48 28.41L158.46 28.43ZM175.63 36.14L179.12 36.25V35C178.39 35.0323 177.66 34.941 176.96 34.73C176.878 34.6738 176.813 34.597 176.771 34.5074C176.729 34.4178 176.711 34.3186 176.72 34.22C176.868 33.33 177.12 32.461 177.47 31.63L178.13 29.82H185.94L187.29 33.1C187.475 33.491 187.593 33.91 187.64 34.34C187.647 34.4262 187.629 34.5126 187.588 34.5889C187.548 34.6651 187.486 34.728 187.41 34.77C186.715 34.9323 186.003 35.0096 185.29 35V36.25L190.6 36.14L194.81 36.25V35L194.14 34.93C193.844 34.9212 193.549 34.8843 193.26 34.82C193.146 34.7814 193.04 34.7202 192.95 34.64C192.832 34.5271 192.734 34.3953 192.66 34.25L192.05 32.86L191.11 30.79L184.39 14.94H182.23L180.9 18.38L176.95 28.13C176.451 29.3685 175.948 30.6052 175.44 31.84C175.11 32.6116 174.777 33.3816 174.44 34.15C174.352 34.3175 174.237 34.4695 174.1 34.6C173.983 34.6974 173.847 34.769 173.7 34.81C173.217 34.895 172.73 34.948 172.24 34.97V36.22L175.71 36.11L175.63 36.14ZM181.99 20.2L185.23 28H178.88L182 20.17L181.99 20.2ZM63.08 2.81001C63.1665 2.85225 63.2393 2.91812 63.29 3.00001C63.34 3.13101 63.367 3.27001 63.37 3.41001V9.07001C63.4524 9.65193 63.7526 10.1809 64.21 10.55C64.5069 10.7835 64.8466 10.9568 65.21 11.06C65.7935 11.2367 66.4003 11.3244 67.01 11.32C67.4993 11.3264 67.9871 11.2658 68.46 11.14C68.8536 11.0339 69.2235 10.8541 69.55 10.61C69.8483 10.3962 70.1001 10.124 70.29 9.81001C70.462 9.50045 70.574 9.16116 70.62 8.81001C70.6731 8.41891 70.6998 8.02469 70.7 7.63001V6.10001V4.30001C70.7064 3.86465 70.7432 3.43026 70.81 3.00001C70.8287 2.92549 70.8708 2.85891 70.93 2.81001C71.1665 2.72351 71.419 2.6894 71.67 2.71001V2.20001L70.29 2.24001H68.74V2.72001C69.0487 2.7083 69.357 2.75234 69.65 2.85001C69.7166 2.88007 69.7699 2.93341 69.8 3.00001C69.873 3.32801 69.903 3.66401 69.89 4.00001V7.30001C69.932 7.92169 69.8573 8.54574 69.67 9.14001C69.5087 9.47271 69.2461 9.74577 68.92 9.92001C68.4841 10.1409 67.9981 10.2443 67.51 10.22C67.0926 10.2301 66.6776 10.1553 66.29 10C65.9922 9.87783 65.7355 9.67314 65.55 9.41001C65.367 9.10742 65.2638 8.76335 65.25 8.41001V4.80001C65.2149 4.2199 65.2283 3.63789 65.29 3.06001C65.2948 3.0162 65.3089 2.97393 65.3313 2.93599C65.3537 2.89805 65.3839 2.86533 65.42 2.84001C65.6969 2.73368 65.9946 2.69262 66.29 2.72001V2.20001H65.17L64.29 2.24001L62.29 2.20001V2.72001L63.12 2.81001H63.08ZM74.37 11.08H77.42V10.54H77.29C77.0893 10.5342 76.889 10.5175 76.69 10.49C76.6152 10.485 76.5429 10.4609 76.48 10.42C76.4389 10.3897 76.4076 10.348 76.39 10.3C76.3362 10.003 76.3095 9.70181 76.31 9.40001V4.20001C78.817 7.26001 80.753 9.55301 82.12 11.08L83.21 11.24L83.29 11.19C83.23 10.59 83.2 8.88301 83.2 6.07001V4.40001C83.1794 3.91154 83.2095 3.42225 83.29 2.94001C83.2992 2.89873 83.3244 2.86278 83.36 2.84001C83.66 2.74601 83.976 2.70801 84.29 2.73001V2.20001H81.29V2.73001C81.629 2.70001 81.97 2.74501 82.29 2.86001C82.3645 2.94576 82.4038 3.0565 82.4 3.17001C82.453 3.57001 82.48 4.90301 82.48 7.17001V8.64001C81.893 8.03301 81.153 7.19701 80.26 6.13001C79.1636 4.84455 78.0966 3.53421 77.06 2.20001H74.37V2.73001C74.641 2.74001 74.912 2.76601 75.18 2.81001C75.2547 2.82417 75.3239 2.85879 75.38 2.91001C75.4268 2.97154 75.4577 3.04367 75.47 3.12001C75.486 3.32001 75.486 3.52001 75.47 3.72001V8.94001C75.437 9.56001 75.407 9.95001 75.38 10.11C75.372 10.1951 75.3446 10.2772 75.3 10.35C75.2677 10.3867 75.2263 10.4143 75.18 10.43C74.8951 10.471 74.6078 10.4944 74.32 10.5V11.04L74.37 11.08ZM89 2.24001H87.17V2.76001C87.437 2.76001 87.705 2.77701 87.97 2.81001C88.0254 2.81931 88.0773 2.84351 88.12 2.88001C88.1513 2.91715 88.1721 2.96206 88.18 3.01001C88.237 3.33701 88.274 3.66801 88.29 4.00001V8.30001C88.29 8.73301 88.27 9.20301 88.23 9.71001V10.31C88.2204 10.3486 88.1995 10.3834 88.17 10.41C88.117 10.4485 88.055 10.4726 87.99 10.48H87.23V11.04H91.26V10.52C91.0069 10.5361 90.7531 10.5361 90.5 10.52C90.4209 10.4986 90.3486 10.4573 90.29 10.4C90.2455 10.3645 90.2139 10.3153 90.2 10.26C90.145 9.98024 90.1248 9.69473 90.14 9.41001V5.70001V4.02001V3.40001C90.1387 3.26504 90.1555 3.13051 90.19 3.00001C90.2067 2.94864 90.2425 2.90566 90.29 2.88001C90.3411 2.84496 90.399 2.82111 90.46 2.81001C90.7164 2.79418 90.9736 2.79418 91.23 2.81001V2.20001H89.03L89 2.24001ZM99.14 11.12C99.4 10.4 99.893 9.16701 100.62 7.42001L101.48 5.42001L101.93 4.37001C102.104 3.85984 102.346 3.37548 102.65 2.93001C102.881 2.84488 103.124 2.80088 103.37 2.80001V2.20001H100.39V2.76001H101.32C101.357 2.77779 101.388 2.80549 101.41 2.84001C101.424 2.89242 101.424 2.94759 101.41 3.00001C101.415 3.0499 101.415 3.10012 101.41 3.15001C101.37 3.32301 101.253 3.65701 101.06 4.15001C100.913 4.5513 100.763 4.95132 100.61 5.35001L99.2 8.84001L97.6 5.00001V4.88001L97.29 4.27001C97.1049 3.88377 96.964 3.47786 96.87 3.06001C96.8649 3.00217 96.8829 2.94465 96.92 2.90001C96.973 2.85177 97.0391 2.82043 97.11 2.81001C97.3641 2.76477 97.622 2.74468 97.88 2.75001V2.20001H93.75V2.76001C94.018 2.74486 94.2864 2.78222 94.54 2.87001C94.703 3.02701 94.829 3.21901 94.91 3.43001C95.07 3.75001 95.503 4.75001 96.21 6.43001L97.11 8.58001L98.11 11.11H99.11L99.14 11.12ZM108.29 11H111.37C111.753 11.02 112.137 11.02 112.52 11L112.6 10.92C112.61 10.228 112.657 9.53705 112.74 8.85001H112.29C112.244 9.23965 112.164 9.62447 112.05 10C112.035 10.0439 112.007 10.0822 111.97 10.11C111.743 10.195 111.503 10.239 111.26 10.24H108.79V6.85001C109.123 6.83174 109.457 6.83174 109.79 6.85001C110.168 6.84484 110.546 6.86824 110.92 6.92001C111.03 6.93001 111.128 6.99001 111.19 7.08001C111.285 7.37301 111.319 7.68301 111.29 7.99001H111.8V5.21001H111.29C111.293 5.47936 111.263 5.74805 111.2 6.01001C111.186 6.06226 111.154 6.10808 111.11 6.14001C110.978 6.16317 110.842 6.16317 110.71 6.14001H108.81V4.82001C108.805 4.2088 108.835 3.59781 108.9 2.99001H110.05C110.461 2.99034 110.872 3.01371 111.28 3.06001C111.455 3.06341 111.627 3.09725 111.79 3.16001C111.831 3.19297 111.859 3.23883 111.87 3.29001C111.914 3.59501 111.934 3.90201 111.93 4.21001H112.42L112.48 3.29001L112.6 2.37001V2.29001L112.29 2.20001H105.83V2.74001C106.14 2.73701 106.45 2.77401 106.75 2.85001C106.794 2.87005 106.83 2.90561 106.85 2.95001C106.92 3.23801 106.95 3.53401 106.94 3.83001V7.92001C106.94 8.25301 106.923 8.78301 106.89 9.51001C106.89 9.91001 106.89 10.2 106.83 10.37C106.638 10.517 106.43 10.64 106.21 10.74V11.08L108.29 11ZM116.64 2.82001C116.681 2.84625 116.712 2.88476 116.73 2.93001C116.798 3.25901 116.825 3.59501 116.81 3.93001V7.60001L116.76 9.45001C116.756 9.70105 116.736 9.95158 116.7 10.2C116.697 10.2631 116.68 10.3247 116.65 10.38C116.621 10.4113 116.582 10.4323 116.54 10.44C116.259 10.488 115.975 10.5114 115.69 10.51V11.07H119.71V10.52C119.464 10.5344 119.216 10.5344 118.97 10.52C118.906 10.5088 118.845 10.4851 118.79 10.45C118.757 10.4267 118.729 10.3959 118.71 10.36C118.664 10.2111 118.64 10.056 118.64 9.90001V8.41001V6.41001V4.01001V3.01001C118.838 2.97657 119.039 2.95984 119.24 2.96001C119.577 2.94063 119.914 2.97438 120.24 3.06001C120.52 3.16601 120.76 3.35401 120.93 3.60001C121.13 3.89401 121.229 4.24501 121.21 4.60001C121.207 4.9509 121.114 5.29511 120.94 5.60001C120.797 5.87976 120.57 6.10726 120.29 6.25001C119.924 6.38901 119.53 6.4437 119.14 6.41001L119.07 6.62001C119.22 6.73901 119.352 6.88001 119.46 7.04001C119.733 7.40701 120.067 7.91301 120.46 8.56001L121.82 10.8C121.885 10.913 121.935 11.034 121.97 11.16H124.39V10.52C124.255 10.5251 124.12 10.5082 123.99 10.47C123.91 10.4316 123.838 10.3771 123.78 10.31C123.707 10.237 123.513 9.99001 123.2 9.57001L122.77 8.94001L121.77 7.47001L121.7 7.35001L121.5 7.00001C121.37 6.80001 121.24 6.61001 121.14 6.42001C121.712 6.23253 122.219 5.88559 122.6 5.42001C122.913 5.02001 123.082 4.52701 123.08 4.02001C123.092 3.6242 122.968 3.23617 122.73 2.92001C122.521 2.63749 122.227 2.43042 121.89 2.33001C121.402 2.21863 120.901 2.17156 120.4 2.19001H115.75V2.72001C116.064 2.72201 116.377 2.76601 116.68 2.85001L116.64 2.82001ZM133.03 3.45001C133.058 3.1778 133.102 2.90738 133.16 2.64001L133.11 2.49001C132.761 2.32466 132.391 2.20694 132.01 2.14001C131.581 2.0596 131.146 2.01942 130.71 2.02001C130.286 2.01866 129.863 2.06563 129.45 2.16001C129.058 2.24814 128.685 2.40744 128.35 2.63001C128.01 2.86539 127.737 3.18611 127.56 3.56001C127.359 3.96716 127.256 4.41587 127.26 4.87001C127.259 5.19435 127.316 5.51624 127.43 5.82001C127.537 6.1048 127.708 6.36131 127.93 6.57001C128.182 6.79601 128.484 6.96001 128.81 7.05001C129.05 7.12301 129.553 7.24001 130.32 7.40001C130.706 7.47487 131.082 7.59573 131.44 7.76001C131.64 7.86201 131.804 8.02201 131.91 8.22001C132.016 8.43401 132.067 8.67101 132.06 8.91001C132.065 9.20682 131.993 9.49987 131.85 9.76001C131.691 10.0269 131.448 10.2341 131.16 10.35C130.819 10.4965 130.451 10.5682 130.08 10.56C129.635 10.5646 129.196 10.4616 128.8 10.26C128.465 10.1104 128.178 9.87173 127.97 9.57001C127.919 9.19218 127.896 8.8112 127.9 8.43001H127.39C127.411 9.16869 127.344 9.90727 127.19 10.63C127.617 10.8445 128.067 11.0121 128.53 11.13C128.986 11.234 129.452 11.2843 129.92 11.28C130.544 11.2969 131.165 11.1951 131.75 10.98C132.09 10.842 132.403 10.65 132.68 10.41C132.967 10.1724 133.207 9.8843 133.39 9.56001C133.623 9.12001 133.74 8.62801 133.73 8.13001C133.734 7.84875 133.693 7.56863 133.61 7.30001C133.544 7.07687 133.439 6.86706 133.3 6.68001C133.162 6.50594 132.993 6.35995 132.8 6.25001C132.539 6.10592 132.26 5.99825 131.97 5.93001L131.12 5.77001L130.12 5.58001C129.865 5.52115 129.619 5.4269 129.39 5.30001C129.227 5.20224 129.095 5.06002 129.01 4.89001C128.912 4.67695 128.864 4.44438 128.87 4.21001C128.873 4.01949 128.916 3.83175 128.997 3.65931C129.078 3.48687 129.195 3.33369 129.34 3.21001C129.714 2.89685 130.193 2.73932 130.68 2.77001C131.055 2.76573 131.426 2.8407 131.77 2.99001C132.036 3.09001 132.27 3.26001 132.45 3.48001C132.49 3.81201 132.51 4.14601 132.51 4.48001H133.04C133.04 4.05001 133.04 3.70001 133.1 3.48001L133.03 3.45001ZM138.67 2.22001H136.84V2.76001C137.107 2.76069 137.375 2.77739 137.64 2.81001C137.695 2.81931 137.747 2.84351 137.79 2.88001C137.821 2.91715 137.842 2.96206 137.85 3.01001C137.898 3.34134 137.924 3.67533 137.93 4.01001V8.30001C137.93 8.73301 137.913 9.20301 137.88 9.71001V10.31C137.87 10.3486 137.85 10.3834 137.82 10.41C137.767 10.4485 137.705 10.4726 137.64 10.48H136.88V11.04H140.91V10.52C140.657 10.5361 140.403 10.5361 140.15 10.52C140.082 10.5074 140.017 10.4801 139.96 10.44C139.915 10.405 139.883 10.3556 139.87 10.3C139.815 10.0203 139.795 9.73473 139.81 9.45001V5.70001V4.02001V3.40001C139.819 3.26369 139.845 3.12914 139.89 3.00001C139.903 2.96074 139.928 2.92607 139.96 2.90001C140.011 2.86522 140.069 2.84139 140.13 2.83001C140.383 2.81454 140.637 2.81454 140.89 2.83001V2.20001H138.69L138.67 2.22001ZM147.51 11C148.077 11 148.77 11.017 149.59 11.05V10.56C149.283 10.5702 148.976 10.5331 148.68 10.45C148.633 10.4254 148.592 10.3913 148.56 10.35C148.527 10.3087 148.503 10.261 148.49 10.21C148.423 9.66272 148.4 9.11099 148.42 8.56001V4.76001V3.02001H149.33C149.817 3.02001 150.233 3.03701 150.58 3.07001C150.646 3.05429 150.714 3.05429 150.78 3.07001C150.828 3.15239 150.855 3.24494 150.86 3.34001C150.907 3.65101 150.934 3.96501 150.94 4.28001H151.46V2.89001C151.471 2.66227 151.495 2.43529 151.53 2.21001L151.47 2.15001H143.45L143.39 2.21001C143.39 2.42301 143.41 2.62301 143.45 2.81001C143.49 2.99701 143.49 3.48701 143.45 4.28001H143.97C143.977 3.94501 144.01 3.61001 144.07 3.28001C144.075 3.20057 144.103 3.12428 144.15 3.06001C144.225 3.0255 144.307 3.00841 144.39 3.01001H146.51V8.55001C146.53 9.09767 146.507 9.64607 146.44 10.19C146.427 10.2426 146.404 10.2919 146.371 10.335C146.339 10.378 146.297 10.4138 146.25 10.44C145.953 10.5179 145.647 10.5516 145.34 10.54V11.06C146.12 11.027 146.813 11.01 147.42 11.01L147.51 11ZM157.91 4.62001C157.636 4.07522 157.328 3.54758 156.99 3.04001C156.848 2.8142 156.684 2.60315 156.5 2.41001C156.33 2.25134 156.142 2.11368 155.94 2.00001L155.24 2.17001L153.89 2.44001V3.00001C154.076 2.97536 154.264 2.97536 154.45 3.00001C154.618 3.11601 154.769 3.25401 154.9 3.41001C155.271 3.84131 155.606 4.30292 155.9 4.79001C156.353 5.49701 156.78 6.21301 157.18 6.94001C157.296 7.12389 157.377 7.32717 157.42 7.54001V9.98001C157.423 10.1102 157.399 10.2396 157.35 10.36C157.306 10.4115 157.246 10.4468 157.18 10.46C156.898 10.4977 156.614 10.5177 156.33 10.52V11.08H160.45V10.52C160.169 10.526 159.888 10.5093 159.61 10.47C159.537 10.4547 159.47 10.4161 159.42 10.36C159.359 10.221 159.325 10.0717 159.32 9.92001C159.3 9.53001 159.3 9.14001 159.32 8.75001V7.66001C159.305 7.50035 159.305 7.33966 159.32 7.18001C159.36 7.01301 159.42 6.85201 159.5 6.70001C159.64 6.43301 160.007 5.83301 160.6 4.90001C161.193 3.96701 161.757 3.16001 162.29 2.48001V2.20001H161.29C161.23 2.32001 161.08 2.59001 160.85 2.99001L159.65 5.11001L158.85 6.40001C158.75 6.18001 158.453 5.59301 157.96 4.64001L157.91 4.62001Z" fill="#004B93"/>
<path fill-rule="evenodd" clip-rule="evenodd" d="M36.21 30.38V21.71H44.2V15.99H36.21V7.89001H44.98V11.03H50.77V2.22001H27.59V7.89001H29.77V30.38H27.6V36.1H38.3V30.38H36.21ZM24.58 23.29V7.89001H26.72V2.22001H16.01V7.89001H18.1V21.38C18.1 27.04 17.45 29.75 13.39 29.75C9.33 29.75 8.67 27 8.67 21.38V7.89001H10.74V2.22001H0V7.89001H2.13V23.29C2.13 26.66 2.13 29.41 3.72 31.89C5.49 34.69 8.72 36.48 13.38 36.48C21.64 36.48 24.58 32.17 24.58 23.29ZM56.07 2.21001V36.09H57.57V2.21001H56.07Z" fill="black"/>
<path d="M169.09 11C169.22 11.358 169.47 11.659 169.8 11.85C170.224 12.076 170.7 12.183 171.18 12.16C171.633 12.1678 172.084 12.0933 172.51 11.94C172.943 11.7704 173.356 11.5524 173.74 11.29C174.086 11.0721 174.402 10.8099 174.68 10.51C175.012 10.0716 175.263 9.57708 175.42 9.05001C175.629 8.43487 175.737 7.7898 175.74 7.14001C175.744 6.82588 175.704 6.51272 175.62 6.21001C175.544 5.94134 175.411 5.69228 175.23 5.48001C175.012 5.25278 174.74 5.08424 174.44 4.99001C174.071 4.85935 173.682 4.79503 173.29 4.80001C172.802 4.79828 172.318 4.897 171.87 5.09001C171.43 5.27846 171.016 5.52389 170.64 5.82001C170.357 6.02952 170.095 6.26742 169.86 6.53001C169.557 6.95627 169.333 7.43399 169.2 7.94001C169.005 8.55127 168.904 9.18848 168.9 9.83001C168.897 10.232 168.965 10.6314 169.1 11.01L169.09 11ZM170.95 7.53001C171.066 6.92722 171.319 6.35923 171.69 5.87001C171.816 5.73054 171.971 5.61928 172.143 5.54347C172.315 5.46765 172.502 5.42899 172.69 5.43001C172.865 5.4235 173.039 5.45602 173.2 5.52521C173.361 5.59439 173.504 5.69851 173.62 5.83001C173.89 6.20301 174.019 6.66001 173.98 7.12001C173.973 7.86699 173.869 8.60989 173.67 9.33001C173.564 9.76075 173.406 10.1771 173.2 10.57C173.067 10.8278 172.875 11.0505 172.64 11.22C172.425 11.3568 172.175 11.4264 171.92 11.42C171.735 11.4355 171.548 11.4085 171.375 11.3409C171.201 11.2733 171.046 11.167 170.92 11.03C170.662 10.6516 170.542 10.1962 170.58 9.74001C170.593 8.98552 170.704 8.23591 170.91 7.51001L170.95 7.53001ZM177.68 5.81001H178.68L177.62 11.28C177.464 12.2938 177.24 13.2961 176.95 14.28C176.894 14.469 176.787 14.6387 176.64 14.77C176.529 14.8586 176.392 14.9079 176.25 14.91C176.103 14.9108 175.96 14.8574 175.85 14.76C175.705 14.6193 175.592 14.4487 175.52 14.26H175.29C175.24 14.52 175.18 14.77 175.11 14.99C175.04 15.21 174.94 15.5 174.81 15.87C174.961 15.94 175.124 15.984 175.29 16C175.543 15.994 175.79 15.925 176.01 15.8C176.546 15.4973 177.021 15.0971 177.41 14.62C177.882 14.0708 178.258 13.4452 178.52 12.77C178.92 11.65 179.254 10.509 179.52 9.35001L180.29 5.81001H182.16C182.215 5.55064 182.292 5.2964 182.39 5.05001L182.32 4.93001C182.085 4.96657 181.848 4.98994 181.61 5.00001C181.083 5.03301 180.75 5.03301 180.61 5.00001H180.49C180.601 4.34332 180.745 3.69253 180.92 3.05001C180.967 2.86332 181.034 2.68227 181.12 2.51001C181.184 2.39455 181.277 2.29797 181.39 2.23001C181.495 2.16501 181.616 2.1304 181.74 2.13001C181.931 2.14127 182.115 2.20722 182.27 2.32001C182.51 2.49601 182.714 2.71601 182.87 2.97001H183.09C183.182 2.33771 183.319 1.71279 183.5 1.10001C183.309 1.02362 183.106 0.982942 182.9 0.980008C182.665 0.971254 182.431 1.00862 182.21 1.09001C181.859 1.2863 181.525 1.51035 181.21 1.76001C180.713 2.11669 180.239 2.50411 179.79 2.92001C179.549 3.13657 179.343 3.38965 179.18 3.67001C179.06 3.94558 178.973 4.2342 178.92 4.53001C178.92 4.72001 178.85 4.84001 178.82 4.92001C178.564 5.03274 178.3 5.12633 178.03 5.20001C177.71 5.29301 177.47 5.37001 177.31 5.43001L177.24 5.80001H177.68V5.81001ZM76.07 22.3H74.74C74.7522 22.8715 74.6951 23.4423 74.57 24C74.5552 24.0781 74.5208 24.1512 74.4701 24.2124C74.4194 24.2736 74.354 24.321 74.28 24.35C73.4676 24.514 72.6376 24.5745 71.81 24.53C71.357 24.53 70.487 24.493 69.2 24.42V22.34C69.2 19.72 69.257 17.91 69.37 16.91L70.96 16.84H72.39C73.1668 16.8305 73.9429 16.8874 74.71 17.01C75.1464 17.0568 75.5721 17.175 75.97 17.36C76.0334 17.3913 76.0832 17.4446 76.11 17.51C76.173 17.772 76.204 18.04 76.2 18.31C76.26 19.123 76.29 19.65 76.29 19.89H77.52C77.52 19.223 77.567 18.447 77.66 17.56C77.753 16.673 77.85 15.94 77.95 15.36L77.81 15.15C76.8469 15.0464 75.8787 14.9963 74.91 15L67.63 15.14L62.29 15V16.3C62.89 16.323 63.487 16.38 64.08 16.47C64.233 16.494 64.379 16.548 64.51 16.63C64.5805 16.6975 64.6293 16.7846 64.65 16.88C64.7666 17.4222 64.8236 17.9755 64.82 18.53C64.913 21.197 64.96 22.61 64.96 22.77V29C64.96 29.533 64.933 30.413 64.88 31.64C64.827 32.867 64.787 33.597 64.76 33.83C64.7491 34.1056 64.6774 34.3754 64.55 34.62C64.4929 34.6992 64.4125 34.7586 64.32 34.79C63.652 34.9276 62.972 34.9979 62.29 35V36.25C64.15 36.177 65.51 36.14 66.37 36.14L72.29 36.22V35C71.4919 34.9713 70.6967 34.8878 69.91 34.75C69.758 34.708 69.6243 34.6165 69.53 34.49C69.3647 33.949 69.2838 33.3857 69.29 32.82C69.23 31.86 69.2 30.193 69.2 27.82V26.11H70.41C71.59 26.084 72.77 26.15 73.94 26.31C74.0452 26.3182 74.1476 26.3482 74.2405 26.3982C74.3335 26.4481 74.4151 26.5168 74.48 26.6C74.6884 27.3412 74.7761 28.111 74.74 28.88H76.07V22.3ZM84.49 36.08C85.157 36.08 86.317 36.1 87.97 36.14L91.53 36.22C92.823 36.22 93.777 36.193 94.39 36.14C94.6936 36.12 94.9947 36.0732 95.29 36C95.29 35.807 95.337 35.233 95.43 34.28L95.81 31.22V30.72H94.58C94.387 31.693 94.19 32.567 93.99 33.34C93.9464 33.5438 93.8576 33.7352 93.73 33.9C93.4997 34.0168 93.2478 34.0849 92.99 34.1C91.6654 34.2911 90.3283 34.3814 88.99 34.37C88.483 34.37 87.533 34.333 86.14 34.26V31.68V27.39V23.02C86.14 21.327 86.163 19.923 86.21 18.81C86.1885 18.1822 86.2153 17.5537 86.29 16.93C86.3297 16.8035 86.4153 16.6965 86.53 16.63C87.2087 16.4334 87.9136 16.3423 88.62 16.36V15C86.973 15.073 85.233 15.11 83.4 15.11C81.753 15.11 80.29 15.073 79.01 15V16.33C79.7949 16.295 80.5799 16.3965 81.33 16.63C81.439 16.6865 81.5215 16.7834 81.56 16.9C81.71 17.98 81.774 19.07 81.75 20.16V26.07C81.75 28.243 81.73 30.103 81.69 31.65C81.65 33.197 81.603 34.097 81.55 34.35C81.5418 34.4118 81.5177 34.4704 81.48 34.52C81.3622 34.6435 81.2234 34.7451 81.07 34.82C80.7161 35.0397 80.3487 35.2367 79.97 35.41V36.19C81.97 36.097 83.473 36.05 84.48 36.05L84.49 36.08ZM97.55 31.88C98.4393 33.4484 99.7763 34.7158 101.39 35.52C103.215 36.3887 105.22 36.8136 107.24 36.76C109.154 36.7986 111.057 36.4588 112.84 35.76C114.035 35.2522 115.119 34.5149 116.03 33.59C116.952 32.6694 117.677 31.5703 118.16 30.36C118.831 28.6811 119.171 26.8881 119.16 25.08C119.16 24.0423 119.036 23.0082 118.79 22C118.578 21.104 118.242 20.2422 117.79 19.44C116.666 17.5863 114.94 16.1743 112.9 15.44C111.288 14.9073 109.598 14.6471 107.9 14.67C106.164 14.6525 104.437 14.9229 102.79 15.47C101.492 15.935 100.305 16.6676 99.3078 17.6202C98.3104 18.5728 97.5242 19.7242 97 21C96.4104 22.5406 96.1252 24.1808 96.16 25.83C96.085 27.9177 96.5646 29.988 97.55 31.83V31.88ZM101.55 20.49C101.941 19.2437 102.736 18.1634 103.81 17.42C104.935 16.717 106.245 16.3686 107.57 16.42C108.645 16.3718 109.714 16.5954 110.68 17.07C111.482 17.54 112.165 18.1864 112.68 18.96C113.293 19.8744 113.74 20.89 114 21.96C114.319 23.2283 114.474 24.5323 114.46 25.84C114.507 27.631 114.219 29.415 113.61 31.1C113.189 32.3393 112.374 33.4068 111.29 34.14C110.26 34.7535 109.079 35.0685 107.88 35.05C106.619 35.0669 105.379 34.7197 104.31 34.05C103.167 33.2405 102.301 32.0988 101.83 30.78C101.116 28.9146 100.776 26.9268 100.83 24.93C100.811 23.4048 101.048 21.8871 101.53 20.44L101.55 20.49ZM121.29 16.6C121.388 16.6622 121.465 16.7529 121.51 16.86C121.659 17.607 121.719 18.3689 121.69 19.13L121.77 22.33V27.95L121.65 32.37C121.638 32.9693 121.588 33.5671 121.5 34.16C121.488 34.3079 121.444 34.4514 121.37 34.58C121.303 34.6577 121.211 34.7105 121.11 34.73C120.45 34.8454 119.78 34.9023 119.11 34.9V36.23C120.443 36.157 121.9 36.12 123.48 36.12C125.247 36.12 126.99 36.157 128.71 36.23V34.89C128.122 34.8943 127.534 34.8642 126.95 34.8C126.794 34.7766 126.645 34.7222 126.51 34.64C126.426 34.584 126.358 34.5085 126.31 34.42C126.196 34.0644 126.139 33.6933 126.14 33.32C126.14 33.04 126.11 31.86 126.05 29.78V24.97C126.05 24.01 126.08 22.103 126.14 19.25C126.14 17.977 126.17 17.157 126.23 16.79C126.706 16.7094 127.187 16.6693 127.67 16.67C128.434 16.6335 129.199 16.711 129.94 16.9C130.608 17.1526 131.184 17.6026 131.59 18.19C132.056 18.872 132.29 19.685 132.26 20.51C132.271 21.382 132.05 22.2412 131.62 23C131.273 23.6634 130.728 24.2019 130.06 24.54C129.186 24.8667 128.25 24.9931 127.32 24.91L127.15 25.41C127.512 25.694 127.829 26.031 128.09 26.41C128.757 27.29 129.543 28.497 130.45 30.03L133.69 35.37C133.847 35.64 133.968 35.929 134.05 36.23C134.85 36.19 135.653 36.17 136.46 36.17C137.127 36.17 138.25 36.19 139.83 36.23V34.89C139.492 34.9066 139.154 34.8661 138.83 34.77C138.641 34.6806 138.471 34.5549 138.33 34.4C138.157 34.22 137.693 33.63 136.94 32.63L135.94 31.13L133.59 27.63L133.42 27.34C133.36 27.24 133.18 26.96 132.85 26.48C132.52 26 132.24 25.55 131.99 25.1C133.359 24.6561 134.574 23.8304 135.49 22.72C136.232 21.7688 136.633 20.5963 136.63 19.39C136.659 18.4478 136.366 17.5237 135.8 16.77C135.304 16.0929 134.603 15.5946 133.8 15.35C132.633 15.0825 131.436 14.9682 130.24 15.01C129.42 15.01 128.387 15.04 127.14 15.1C126.38 15.147 125.473 15.17 124.42 15.17H121.54L119.12 15.1V16.3C119.87 16.3022 120.616 16.4031 121.34 16.6H121.29ZM145.44 15.14C143.793 15.14 142.333 15.103 141.06 15.03V16.36C141.702 16.3648 142.343 16.4082 142.98 16.49C143.113 16.5132 143.238 16.5719 143.34 16.66C143.415 16.7454 143.467 16.8488 143.49 16.96C143.6 17.759 143.66 18.564 143.67 19.37V29.58C143.67 30.613 143.63 31.733 143.55 32.94C143.5 33.77 143.46 34.24 143.43 34.36C143.407 34.4518 143.359 34.5352 143.29 34.6C143.164 34.6932 143.016 34.7518 142.86 34.77C142.7 34.77 142.093 34.807 141.04 34.88V36.21C142.489 36.1321 143.939 36.0954 145.39 36.1C147.263 36.1 149.02 36.137 150.66 36.21V34.89C150.055 34.8947 149.451 34.8613 148.85 34.79C148.685 34.764 148.528 34.7026 148.39 34.61C148.286 34.526 148.212 34.4101 148.18 34.28C148.049 33.6219 147.999 32.9503 148.03 32.28V23.38C148.03 23.187 148.05 21.853 148.09 19.38V17.89C148.092 17.5512 148.143 17.2145 148.24 16.89C148.27 16.7911 148.329 16.7038 148.41 16.64C148.533 16.555 148.673 16.4971 148.82 16.47C149.427 16.3956 150.038 16.3589 150.65 16.36V15C149.003 15.073 147.257 15.11 145.41 15.11L145.44 15.14ZM157.15 36.14L161.64 36.25C163.404 36.288 165.163 36.0622 166.86 35.58C168.324 35.1143 169.683 34.3669 170.86 33.38C172.104 32.3486 173.098 31.0496 173.77 29.58C174.498 27.9588 174.86 26.197 174.83 24.42C174.846 22.9954 174.606 21.5794 174.12 20.24C173.828 19.4669 173.405 18.7498 172.87 18.12C172.301 17.4471 171.626 16.8727 170.87 16.42C169.997 15.9289 169.047 15.5906 168.06 15.42C166.644 15.1736 165.207 15.0631 163.77 15.09C162.99 15.09 161.957 15.107 160.67 15.14C158.883 15.2 157.667 15.23 157.02 15.23L151.57 15V16.22C152.663 16.36 153.297 16.45 153.47 16.49C153.611 16.5136 153.742 16.5759 153.85 16.67C153.906 16.7298 153.947 16.8017 153.97 16.88C154.115 17.783 154.182 18.696 154.17 19.61C154.223 22.183 154.25 24.137 154.25 25.47V28C154.25 31.04 154.193 33.237 154.08 34.59C153.76 34.833 153.426 35.056 153.08 35.26L152.66 35.5V36.23L157.24 36.12L157.15 36.14ZM158.46 28.43V24.93C158.46 20.97 158.513 18.277 158.62 16.85C159.471 16.7226 160.33 16.6557 161.19 16.65C162.752 16.5828 164.315 16.7651 165.82 17.19C166.809 17.5328 167.685 18.1418 168.35 18.95C169.026 19.7761 169.517 20.7378 169.79 21.77C170.084 22.8588 170.232 23.9821 170.23 25.11C170.239 26.3009 170.091 27.4877 169.79 28.64C169.539 29.6415 169.123 30.5945 168.56 31.46C168.12 32.1523 167.557 32.7589 166.9 33.25C166.291 33.6683 165.614 33.9795 164.9 34.17C163.734 34.467 162.533 34.6082 161.33 34.59C160.428 34.5845 159.529 34.5042 158.64 34.35C158.533 33.39 158.48 31.41 158.48 28.41L158.46 28.43ZM175.63 36.14L179.12 36.25V35C178.39 35.0323 177.66 34.941 176.96 34.73C176.878 34.6738 176.813 34.597 176.771 34.5074C176.729 34.4178 176.711 34.3186 176.72 34.22C176.868 33.33 177.12 32.461 177.47 31.63L178.13 29.82H185.94L187.29 33.1C187.475 33.491 187.593 33.91 187.64 34.34C187.647 34.4262 187.629 34.5126 187.588 34.5889C187.548 34.6651 187.486 34.728 187.41 34.77C186.715 34.9323 186.003 35.0096 185.29 35V36.25L190.6 36.14L194.81 36.25V35L194.14 34.93C193.844 34.9212 193.549 34.8843 193.26 34.82C193.146 34.7814 193.04 34.7202 192.95 34.64C192.832 34.5271 192.734 34.3953 192.66 34.25L192.05 32.86L191.11 30.79L184.39 14.94H182.23L180.9 18.38L176.95 28.13C176.451 29.3685 175.948 30.6052 175.44 31.84C175.11 32.6116 174.777 33.3816 174.44 34.15C174.352 34.3175 174.237 34.4695 174.1 34.6C173.983 34.6974 173.847 34.769 173.7 34.81C173.217 34.895 172.73 34.948 172.24 34.97V36.22L175.71 36.11L175.63 36.14ZM181.99 20.2L185.23 28H178.88L182 20.17L181.99 20.2ZM63.08 2.81001C63.1665 2.85225 63.2393 2.91812 63.29 3.00001C63.34 3.13101 63.367 3.27001 63.37 3.41001V9.07001C63.4524 9.65193 63.7526 10.1809 64.21 10.55C64.5069 10.7835 64.8466 10.9568 65.21 11.06C65.7935 11.2367 66.4003 11.3244 67.01 11.32C67.4993 11.3264 67.9871 11.2658 68.46 11.14C68.8536 11.0339 69.2235 10.8541 69.55 10.61C69.8483 10.3962 70.1001 10.124 70.29 9.81001C70.462 9.50045 70.574 9.16116 70.62 8.81001C70.6731 8.41891 70.6998 8.02469 70.7 7.63001V6.10001V4.30001C70.7064 3.86465 70.7432 3.43026 70.81 3.00001C70.8287 2.92549 70.8708 2.85891 70.93 2.81001C71.1665 2.72351 71.419 2.6894 71.67 2.71001V2.20001L70.29 2.24001H68.74V2.72001C69.0487 2.7083 69.357 2.75234 69.65 2.85001C69.7166 2.88007 69.7699 2.93341 69.8 3.00001C69.873 3.32801 69.903 3.66401 69.89 4.00001V7.30001C69.932 7.92169 69.8573 8.54574 69.67 9.14001C69.5087 9.47271 69.2461 9.74577 68.92 9.92001C68.4841 10.1409 67.9981 10.2443 67.51 10.22C67.0926 10.2301 66.6776 10.1553 66.29 10C65.9922 9.87783 65.7355 9.67314 65.55 9.41001C65.367 9.10742 65.2638 8.76335 65.25 8.41001V4.80001C65.2149 4.2199 65.2283 3.63789 65.29 3.06001C65.2948 3.0162 65.3089 2.97393 65.3313 2.93599C65.3537 2.89805 65.3839 2.86533 65.42 2.84001C65.6969 2.73368 65.9946 2.69262 66.29 2.72001V2.20001H65.17L64.29 2.24001L62.29 2.20001V2.72001L63.12 2.81001H63.08ZM74.37 11.08H77.42V10.54H77.29C77.0893 10.5342 76.889 10.5175 76.69 10.49C76.6152 10.485 76.5429 10.4609 76.48 10.42C76.4389 10.3897 76.4076 10.348 76.39 10.3C76.3362 10.003 76.3095 9.70181 76.31 9.40001V4.20001C78.817 7.26001 80.753 9.55301 82.12 11.08L83.21 11.24L83.29 11.19C83.23 10.59 83.2 8.88301 83.2 6.07001V4.40001C83.1794 3.91154 83.2095 3.42225 83.29 2.94001C83.2992 2.89873 83.3244 2.86278 83.36 2.84001C83.66 2.74601 83.976 2.70801 84.29 2.73001V2.20001H81.29V2.73001C81.629 2.70001 81.97 2.74501 82.29 2.86001C82.3645 2.94576 82.4038 3.0565 82.4 3.17001C82.453 3.57001 82.48 4.90301 82.48 7.17001V8.64001C81.893 8.03301 81.153 7.19701 80.26 6.13001C79.1636 4.84455 78.0966 3.53421 77.06 2.20001H74.37V2.73001C74.641 2.74001 74.912 2.76601 75.18 2.81001C75.2547 2.82417 75.3239 2.85879 75.38 2.91001C75.4268 2.97154 75.4577 3.04367 75.47 3.12001C75.486 3.32001 75.486 3.52001 75.47 3.72001V8.94001C75.437 9.56001 75.407 9.95001 75.38 10.11C75.372 10.1951 75.3446 10.2772 75.3 10.35C75.2677 10.3867 75.2263 10.4143 75.18 10.43C74.8951 10.471 74.6078 10.4944 74.32 10.5V11.04L74.37 11.08ZM89 2.24001H87.17V2.76001C87.437 2.76001 87.705 2.77701 87.97 2.81001C88.0254 2.81931 88.0773 2.84351 88.12 2.88001C88.1513 2.91715 88.1721 2.96206 88.18 3.01001C88.237 3.33701 88.274 3.66801 88.29 4.00001V8.30001C88.29 8.73301 88.27 9.20301 88.23 9.71001V10.31C88.2204 10.3486 88.1995 10.3834 88.17 10.41C88.117 10.4485 88.055 10.4726 87.99 10.48H87.23V11.04H91.26V10.52C91.0069 10.5361 90.7531 10.5361 90.5 10.52C90.4209 10.4986 90.3486 10.4573 90.29 10.4C90.2455 10.3645 90.2139 10.3153 90.2 10.26C90.145 9.98024 90.1248 9.69473 90.14 9.41001V5.70001V4.02001V3.40001C90.1387 3.26504 90.1555 3.13051 90.19 3.00001C90.2067 2.94864 90.2425 2.90566 90.29 2.88001C90.3411 2.84496 90.399 2.82111 90.46 2.81001C90.7164 2.79418 90.9736 2.79418 91.23 2.81001V2.20001H89.03L89 2.24001ZM99.14 11.12C99.4 10.4 99.893 9.16701 100.62 7.42001L101.48 5.42001L101.93 4.37001C102.104 3.85984 102.346 3.37548 102.65 2.93001C102.881 2.84488 103.124 2.80088 103.37 2.80001V2.20001H100.39V2.76001H101.32C101.357 2.77779 101.388 2.80549 101.41 2.84001C101.424 2.89242 101.424 2.94759 101.41 3.00001C101.415 3.0499 101.415 3.10012 101.41 3.15001C101.37 3.32301 101.253 3.65701 101.06 4.15001C100.913 4.5513 100.763 4.95132 100.61 5.35001L99.2 8.84001L97.6 5.00001V4.88001L97.29 4.27001C97.1049 3.88377 96.964 3.47786 96.87 3.06001C96.8649 3.00217 96.8829 2.94465 96.92 2.90001C96.973 2.85177 97.0391 2.82043 97.11 2.81001C97.3641 2.76477 97.622 2.74468 97.88 2.75001V2.20001H93.75V2.76001C94.018 2.74486 94.2864 2.78222 94.54 2.87001C94.703 3.02701 94.829 3.21901 94.91 3.43001C95.07 3.75001 95.503 4.75001 96.21 6.43001L97.11 8.58001L98.11 11.11H99.11L99.14 11.12ZM108.29 11H111.37C111.753 11.02 112.137 11.02 112.52 11L112.6 10.92C112.61 10.228 112.657 9.53705 112.74 8.85001H112.29C112.244 9.23965 112.164 9.62447 112.05 10C112.035 10.0439 112.007 10.0822 111.97 10.11C111.743 10.195 111.503 10.239 111.26 10.24H108.79V6.85001C109.123 6.83174 109.457 6.83174 109.79 6.85001C110.168 6.84484 110.546 6.86824 110.92 6.92001C111.03 6.93001 111.128 6.99001 111.19 7.08001C111.285 7.37301 111.319 7.68301 111.29 7.99001H111.8V5.21001H111.29C111.293 5.47936 111.263 5.74805 111.2 6.01001C111.186 6.06226 111.154 6.10808 111.11 6.14001C110.978 6.16317 110.842 6.16317 110.71 6.14001H108.81V4.82001C108.805 4.2088 108.835 3.59781 108.9 2.99001H110.05C110.461 2.99034 110.872 3.01371 111.28 3.06001C111.455 3.06341 111.627 3.09725 111.79 3.16001C111.831 3.19297 111.859 3.23883 111.87 3.29001C111.914 3.59501 111.934 3.90201 111.93 4.21001H112.42L112.48 3.29001L112.6 2.37001V2.29001L112.29 2.20001H105.83V2.74001C106.14 2.73701 106.45 2.77401 106.75 2.85001C106.794 2.87005 106.83 2.90561 106.85 2.95001C106.92 3.23801 106.95 3.53401 106.94 3.83001V7.92001C106.94 8.25301 106.923 8.78301 106.89 9.51001C106.89 9.91001 106.89 10.2 106.83 10.37C106.638 10.517 106.43 10.64 106.21 10.74V11.08L108.29 11ZM116.64 2.82001C116.681 2.84625 116.712 2.88476 116.73 2.93001C116.798 3.25901 116.825 3.59501 116.81 3.93001V7.60001L116.76 9.45001C116.756 9.70105 116.736 9.95158 116.7 10.2C116.697 10.2631 116.68 10.3247 116.65 10.38C116.621 10.4113 116.582 10.4323 116.54 10.44C116.259 10.488 115.975 10.5114 115.69 10.51V11.07H119.71V10.52C119.464 10.5344 119.216 10.5344 118.97 10.52C118.906 10.5088 118.845 10.4851 118.79 10.45C118.757 10.4267 118.729 10.3959 118.71 10.36C118.664 10.2111 118.64 10.056 118.64 9.90001V8.41001V6.41001V4.01001V3.01001C118.838 2.97657 119.039 2.95984 119.24 2.96001C119.577 2.94063 119.914 2.97438 120.24 3.06001C120.52 3.16601 120.76 3.35401 120.93 3.60001C121.13 3.89401 121.229 4.24501 121.21 4.60001C121.207 4.9509 121.114 5.29511 120.94 5.60001C120.797 5.87976 120.57 6.10726 120.29 6.25001C119.924 6.38901 119.53 6.4437 119.14 6.41001L119.07 6.62001C119.22 6.73901 119.352 6.88001 119.46 7.04001C119.733 7.40701 120.067 7.91301 120.46 8.56001L121.82 10.8C121.885 10.913 121.935 11.034 121.97 11.16H124.39V10.52C124.255 10.5251 124.12 10.5082 123.99 10.47C123.91 10.4316 123.838 10.3771 123.78 10.31C123.707 10.237 123.513 9.99001 123.2 9.57001L122.77 8.94001L121.77 7.47001L121.7 7.35001L121.5 7.00001C121.37 6.80001 121.24 6.61001 121.14 6.42001C121.712 6.23253 122.219 5.88559 122.6 5.42001C122.913 5.02001 123.082 4.52701 123.08 4.02001C123.092 3.6242 122.968 3.23617 122.73 2.92001C122.521 2.63749 122.227 2.43042 121.89 2.33001C121.402 2.21863 120.901 2.17156 120.4 2.19001H115.75V2.72001C116.064 2.72201 116.377 2.76601 116.68 2.85001L116.64 2.82001ZM133.03 3.45001C133.058 3.1778 133.102 2.90738 133.16 2.64001L133.11 2.49001C132.761 2.32466 132.391 2.20694 132.01 2.14001C131.581 2.0596 131.146 2.01942 130.71 2.02001C130.286 2.01866 129.863 2.06563 129.45 2.16001C129.058 2.24814 128.685 2.40744 128.35 2.63001C128.01 2.86539 127.737 3.18611 127.56 3.56001C127.359 3.96716 127.256 4.41587 127.26 4.87001C127.259 5.19435 127.316 5.51624 127.43 5.82001C127.537 6.1048 127.708 6.36131 127.93 6.57001C128.182 6.79601 128.484 6.96001 128.81 7.05001C129.05 7.12301 129.553 7.24001 130.32 7.40001C130.706 7.47487 131.082 7.59573 131.44 7.76001C131.64 7.86201 131.804 8.02201 131.91 8.22001C132.016 8.43401 132.067 8.67101 132.06 8.91001C132.065 9.20682 131.993 9.49987 131.85 9.76001C131.691 10.0269 131.448 10.2341 131.16 10.35C130.819 10.4965 130.451 10.5682 130.08 10.56C129.635 10.5646 129.196 10.4616 128.8 10.26C128.465 10.1104 128.178 9.87173 127.97 9.57001C127.919 9.19218 127.896 8.8112 127.9 8.43001H127.39C127.411 9.16869 127.344 9.90727 127.19 10.63C127.617 10.8445 128.067 11.0121 128.53 11.13C128.986 11.234 129.452 11.2843 129.92 11.28C130.544 11.2969 131.165 11.1951 131.75 10.98C132.09 10.842 132.403 10.65 132.68 10.41C132.967 10.1724 133.207 9.8843 133.39 9.56001C133.623 9.12001 133.74 8.62801 133.73 8.13001C133.734 7.84875 133.693 7.56863 133.61 7.30001C133.544 7.07687 133.439 6.86706 133.3 6.68001C133.162 6.50594 132.993 6.35995 132.8 6.25001C132.539 6.10592 132.26 5.99825 131.97 5.93001L131.12 5.77001L130.12 5.58001C129.865 5.52115 129.619 5.4269 129.39 5.30001C129.227 5.20224 129.095 5.06002 129.01 4.89001C128.912 4.67695 128.864 4.44438 128.87 4.21001C128.873 4.01949 128.916 3.83175 128.997 3.65931C129.078 3.48687 129.195 3.33369 129.34 3.21001C129.714 2.89685 130.193 2.73932 130.68 2.77001C131.055 2.76573 131.426 2.8407 131.77 2.99001C132.036 3.09001 132.27 3.26001 132.45 3.48001C132.49 3.81201 132.51 4.14601 132.51 4.48001H133.04C133.04 4.05001 133.04 3.70001 133.1 3.48001L133.03 3.45001ZM138.67 2.22001H136.84V2.76001C137.107 2.76069 137.375 2.77739 137.64 2.81001C137.695 2.81931 137.747 2.84351 137.79 2.88001C137.821 2.91715 137.842 2.96206 137.85 3.01001C137.898 3.34134 137.924 3.67533 137.93 4.01001V8.30001C137.93 8.73301 137.913 9.20301 137.88 9.71001V10.31C137.87 10.3486 137.85 10.3834 137.82 10.41C137.767 10.4485 137.705 10.4726 137.64 10.48H136.88V11.04H140.91V10.52C140.657 10.5361 140.403 10.5361 140.15 10.52C140.082 10.5074 140.017 10.4801 139.96 10.44C139.915 10.405 139.883 10.3556 139.87 10.3C139.815 10.0203 139.795 9.73473 139.81 9.45001V5.70001V4.02001V3.40001C139.819 3.26369 139.845 3.12914 139.89 3.00001C139.903 2.96074 139.928 2.92607 139.96 2.90001C140.011 2.86522 140.069 2.84139 140.13 2.83001C140.383 2.81454 140.637 2.81454 140.89 2.83001V2.20001H138.69L138.67 2.22001ZM147.51 11C148.077 11 148.77 11.017 149.59 11.05V10.56C149.283 10.5702 148.976 10.5331 148.68 10.45C148.633 10.4254 148.592 10.3913 148.56 10.35C148.527 10.3087 148.503 10.261 148.49 10.21C148.423 9.66272 148.4 9.11099 148.42 8.56001V4.76001V3.02001H149.33C149.817 3.02001 150.233 3.03701 150.58 3.07001C150.646 3.05429 150.714 3.05429 150.78 3.07001C150.828 3.15239 150.855 3.24494 150.86 3.34001C150.907 3.65101 150.934 3.96501 150.94 4.28001H151.46V2.89001C151.471 2.66227 151.495 2.43529 151.53 2.21001L151.47 2.15001H143.45L143.39 2.21001C143.39 2.42301 143.41 2.62301 143.45 2.81001C143.49 2.99701 143.49 3.48701 143.45 4.28001H143.97C143.977 3.94501 144.01 3.61001 144.07 3.28001C144.075 3.20057 144.103 3.12428 144.15 3.06001C144.225 3.0255 144.307 3.00841 144.39 3.01001H146.51V8.55001C146.53 9.09767 146.507 9.64607 146.44 10.19C146.427 10.2426 146.404 10.2919 146.371 10.335C146.339 10.378 146.297 10.4138 146.25 10.44C145.953 10.5179 145.647 10.5516 145.34 10.54V11.06C146.12 11.027 146.813 11.01 147.42 11.01L147.51 11ZM157.91 4.62001C157.636 4.07522 157.328 3.54758 156.99 3.04001C156.848 2.8142 156.684 2.60315 156.5 2.41001C156.33 2.25134 156.142 2.11368 155.94 2.00001L155.24 2.17001L153.89 2.44001V3.00001C154.076 2.97536 154.264 2.97536 154.45 3.00001C154.618 3.11601 154.769 3.25401 154.9 3.41001C155.271 3.84131 155.606 4.30292 155.9 4.79001C156.353 5.49701 156.78 6.21301 157.18 6.94001C157.296 7.12389 157.377 7.32717 157.42 7.54001V9.98001C157.423 10.1102 157.399 10.2396 157.35 10.36C157.306 10.4115 157.246 10.4468 157.18 10.46C156.898 10.4977 156.614 10.5177 156.33 10.52V11.08H160.45V10.52C160.169 10.526 159.888 10.5093 159.61 10.47C159.537 10.4547 159.47 10.4161 159.42 10.36C159.359 10.221 159.325 10.0717 159.32 9.92001C159.3 9.53001 159.3 9.14001 159.32 8.75001V7.66001C159.305 7.50035 159.305 7.33966 159.32 7.18001C159.36 7.01301 159.42 6.85201 159.5 6.70001C159.64 6.43301 160.007 5.83301 160.6 4.90001C161.193 3.96701 161.757 3.16001 162.29 2.48001V2.20001H161.29C161.23 2.32001 161.08 2.59001 160.85 2.99001L159.65 5.11001L158.85 6.40001C158.75 6.18001 158.453 5.59301 157.96 4.64001L157.91 4.62001Z" fill="black"/>
<path fill-rule="evenodd" clip-rule="evenodd" d="M36.21 30.38V21.71H44.2V15.99H36.21V7.89002H44.98V11.03H50.77V2.22002H27.59V7.89002H29.77V30.38H27.6V36.1H38.3V30.38H36.21ZM24.58 23.29V7.89002H26.72V2.22002H16.01V7.89002H18.1V21.38C18.1 27.04 17.45 29.75 13.39 29.75C9.33 29.75 8.67 27 8.67 21.38V7.89002H10.74V2.22002H0V7.89002H2.13V23.29C2.13 26.66 2.13 29.41 3.72 31.89C5.49 34.69 8.72 36.48 13.38 36.48C21.64 36.48 24.58 32.17 24.58 23.29Z" fill="black"/>
</svg>
